# xmcd CD database file
#
# Track frame offsets:
#	150
#	12145
#	27908
#	40456
#	51550
#	62928
#	82925
#	96136
#	112084
#	122571
#	139816
#	157786
#	169330
#	180409
#	190807
#
# Disc length: 2676 seconds
#
# Revision: 0
# Processed by: cddbd v1.5.1PL0 Copyright (c) Steve Scherf et al.
# Submitted via: CDex 1.51
#
DISCID=c60a720f
DTITLE=John Lee Hooker - The Great John Lee Hooker Disc 2
DYEAR=1900
DGENRE=Blues
TTITLE0=Boogie Chillun
TTITLE1=Crawlin' Kingsnake
TTITLE2=One Way Ticket
TTITLE3=Bottle Up and Go
TTITLE4=This is Hip
TTITLE5=Half a Stranger
TTITLE6=Birmingham Blues
TTITLE7=It Serves Me Right to Suffer
TTITLE8=Big Legs, Tight Skirt
TTITLE9=Blues Before Sunrise
TTITLE10=Wednesday Evening Blues
TTITLE11=Little Wheel
TTITLE12=Good Rockin' Mama
TTITLE13=Old Time Shimmy
TTITLE14=Onions
EXTD=
EXTT0=
EXTT1=
EXTT2=
EXTT3=
EXTT4=
EXTT5=
EXTT6=
EXTT7=
EXTT8=
EXTT9=
EXTT10=
EXTT11=
EXTT12=
EXTT13=
EXTT14=
PLAYORDER=
